<svg xmlns="http://www.w3.org/2000/svg" width="24" height="24" viewBox="0 0 24 24">
  <path fill="#c5c5c5" fill-rule="evenodd" d="M18.1 13.3l1.1.2 1.1.6.4.4.2.4-.1.4.6-.3.1-.5-.3-.5-.4-.3-.6-.3-.9-.2h-.8zM2.5 12.9l.1 1.4 1.1 2.1 1.8.9-1.1-1.1 4 2.1-3.5-.8-3-2.3 1.4 2.2 4.2 2.1-2-.2-2.5-1.4.2.5 5.1 3.7 4.3.8 3.8-.3 3.7-1.5-1.5.1 3.3-1.8-3.1.5-2.9-.2-.2 2.5-2.2-1-1.9 1.1-.4-.9-1.9-.5 1.9.3v-1.4l-3.5-.9 3.5.4v-1l-3.4-.9 3.4.4v-1.1l-3.4-.8-.7.5 2.4.7-3.3-.5-2.3-1.4zM18.6 20.8l-1 .7-.8.4-.8-.1 2-.9.4-.1zM10 19.5l-1.4.5-1.5.2 1.3.8 1 .4-.9-.2-1.3-.6-.8-.5-.6-.6 2 .1 1.1-.2.5-.2zM6.8 12.8l-.9.1-1.2.4-.6.3-.3.3-.1.4.7-.4 1.3-.4h.4zM22.8 12.7l-.2-.1.1.8-.4.9-1.5 1.3-2.7 1.1-1.9.2 2.2-.9.8-.6.3-.7-1.8 1-2.3.5.2 1.4.9.1-.9.2v1.2l3.7.2 1.6-.4 1.3-.7.8-1-1.6.7 2-1.9.4-1-1 .8.1-.8-2.6 2.8-1 .7h-.7l2.1-1.5 2.1-2.3.5-1.1zM19.1 12.4l1.2.5.9.6.6.7.1.4.4-.4v-.3l-.2-.4-.7-.6-.9-.4-.8-.1zM3.2 11.1h1.9l.2-.2-.2-.2h-2l-.2.1.1.2zM5.5 7.7v.3l.1.1h2.5l.2-.2-.2-.2H5.6zM9.2 6h2.8l.1.2-.1.1H9.1L9 6.2zM19.3 4.4l-2-.7-1.9.5-1.5 2.6-6.9 6.5 3-.5-3.2.9-2.1 1.7 1.8 1 1.8-1.2 2.7-.8 3-1.6 1.5-1.3.7-1.3.1-1-.6-1.2.9.9.1 1.2-1 1.9-2.4 1.8-3.4 1.5h1.2l1 .9h.6l-.5-.7.6-.6 1.3 1.2h.7l-.9-.9.2-.7 2.3-1.3 2.1-2.9.3-3.8 1-1.5-.8-.2zM17.4 4.8h.3l.3.2v.3l-.3.2-.4-.2.1-.4z"/>
</svg>
